<?xml version="1.0" encoding="utf-8"?>
<!-- Generator: Adobe Illustrator 25.3.1, SVG Export Plug-In . SVG Version: 6.00 Build 0)  -->
<svg version="1.1" id="home" xmlns="http://www.w3.org/2000/svg" xmlns:xlink="http://www.w3.org/1999/xlink" x="0px" y="0px"
	 viewBox="0 0 193.4 36.1" style="enable-background:new 0 0 193.4 36.1;" xml:space="preserve">
<style type="text/css">
	.st0{fill:#E6E6E6;}
	.st1{fill:#E81F1F;}
	.st2{fill:#FFFFFF;}
</style>
<g>
	<polygon class="st2" points="18.9,15.6 15.8,13.9 12.1,16 12.1,27.1 15.8,29.2 25.5,23.7 22.6,21.9 15.8,25.7 15.1,25.3 15.1,17.8 
			"/>
	<polygon class="st2" points="21.6,6.8 22.2,3.7 15.8,0 0,9 0,27.1 3,28.8 3,10.8 15.8,3.5 	"/>
	<polygon class="st2" points="28.6,10.8 28.6,25.4 15.8,32.7 9,28.8 9,14.3 15.8,10.4 22.6,14.3 25.6,12.6 25.6,12.5 15.8,7 6,12.5 
		6,30.5 15.8,36.1 31.6,27.1 31.6,9.1 	"/>
	<polygon class="st2" points="45.6,9.8 58.2,9.8 58.2,12.7 49.1,12.7 49.1,17.6 57,17.6 57,20.6 49.1,20.6 49.1,27.6 45.6,27.6 	"/>
	<rect x="60.4" y="9.8" class="st2" width="3.5" height="17.8"/>
	<path class="st2" d="M81.2,21.7v5.9h-3.5v-5.1l-1.5-1.7h-5.6v6.8h-3.5V9.8h11.2l2.7,2.8v5.4l-1.7,1.8L81.2,21.7z M70.7,17.9h6.1
		l0.9-0.9v-3.5l-0.9-0.9h-6.2L70.7,17.9z"/>
	<polygon class="st2" points="84.4,9.8 87.6,9.8 92.9,21.3 98.2,9.8 101.5,9.8 101.5,27.6 98.1,27.6 98.1,16.7 94.1,25.1 91.9,25.1 
		87.9,16.7 87.9,27.6 84.4,27.6 	"/>
	<path class="st2" d="M109.7,9.8h3.2l6.5,17.8h-3.5l-1.5-4h-6.3l-1.5,4h-3.5L109.7,9.8z M113.7,20.8l-2.4-6.7l-2.3,6.7L113.7,20.8z"
		/>
	<polygon class="st2" points="121,24.6 121,12.7 123.9,9.8 132.6,9.8 135.5,12.7 135.5,15.3 132,15.3 132,13.9 130.8,12.7 
		125.8,12.7 124.4,14.1 124.4,23.4 125.8,24.8 130.8,24.8 132,23.6 132,22 135.5,22 135.5,24.6 132.6,27.5 123.9,27.5 	"/>
	<polygon class="st2" points="137.9,9.8 141.3,9.8 141.3,17.2 148.9,17.2 148.9,9.8 152.3,9.8 152.3,27.6 148.9,27.6 148.9,20.2 
		141.3,20.2 141.3,27.6 137.9,27.6 	"/>
	<path class="st2" d="M160.6,9.8h3.2l6.5,17.8h-3.5l-1.5-4h-6.3l-1.5,4h-3.5L160.6,9.8z M164.5,20.8l-2.4-6.7l-2.3,6.7L164.5,20.8z"
		/>
	<rect x="172.1" y="9.8" class="st2" width="3.5" height="17.8"/>
	<polygon class="st2" points="179,9.8 182.1,9.8 190,21.8 190,9.8 193.4,9.8 193.4,27.6 190.3,27.6 182.4,15.5 182.4,27.6 179,27.6 
			"/>
</g>
</svg>
