<?xml version="1.0" encoding="UTF-8"?>
<svg width="120px" height="117px" viewBox="0 0 120 117" version="1.1" xmlns="http://www.w3.org/2000/svg" xmlns:xlink="http://www.w3.org/1999/xlink">
    <!-- Generator: Sketch 61 (89581) - https://sketch.com -->
    <title>icon_github</title>
    <desc>Created with Sketch.</desc>
    <g id="Page-1" stroke="none" stroke-width="1" fill="none" fill-rule="evenodd">
        <g id="Community" transform="translate(-528.000000, -326.000000)" fill="#FFFFFF" fill-rule="nonzero">
            <g id="Group-3" transform="translate(528.000000, 326.000000)">
                <g id="icon_github" transform="translate(0.000000, -0.000000)">
                    <path d="M59.9839108,3.55271368e-13 C93.1111376,3.55271368e-13 119.967351,26.8552727 119.967351,59.9839108 C119.967351,86.4778829 102.801805,108.954267 78.9813642,116.894884 C75.9404168,117.483879 74.8607487,115.613396 74.8607487,114.017181 C74.8607487,112.120352 74.9249157,106.091255 74.9300491,98.5112768 L74.9303743,97.5558887 C74.9303743,91.9599621 73.0133167,88.3093198 70.8619781,86.4477745 C84.2188127,84.9630545 98.2512043,79.8897907 98.2512043,56.8512269 C98.2512043,50.3021816 95.9239199,44.9513561 92.0780435,40.7507653 C92.7009108,39.2397004 94.7548675,33.1389879 91.489989,24.876587 C91.489989,24.876587 86.460006,23.2643768 75.0108202,31.0252848 C70.2169999,29.6958112 65.0816376,29.029663 59.9839108,29.0070817 C54.886184,29.029663 49.7545853,29.6958112 44.9701739,31.0252848 C33.5073452,23.2643768 28.4703056,24.876587 28.4703056,24.876587 C25.2134246,33.1389879 27.2664404,39.2397004 27.8893078,40.7507653 C24.0518993,44.9513561 21.7086198,50.302652 21.7086198,56.8512269 C21.7086198,79.8352193 35.7146665,84.9785791 49.0376292,86.4957597 C47.3223919,87.9936521 45.7675758,90.6394269 45.2293883,94.5168231 C41.8064407,96.0490579 33.1239337,98.700478 27.7740491,89.5301209 C27.7740491,89.5301209 24.6023183,83.7718913 18.5787585,83.3484921 C18.5787585,83.3484921 12.7264402,83.2722802 18.1685317,86.9953708 C18.1685317,86.9953708 22.1000289,88.8385688 24.8286017,95.7719666 C24.8286017,95.7719666 28.349872,106.477852 45.0379178,102.84932 C45.0633217,107.861426 45.1193045,112.587032 45.1193045,114.017181 C45.1193045,115.601635 44.0184665,117.458005 41.0207999,116.902882 C17.1871864,108.971203 7.10542736e-14,86.4868213 7.10542736e-14,59.9839108 C7.10542736e-14,26.8552727 26.8599772,3.55271368e-13 59.9839108,3.55271368e-13 Z M45.2698464,97.0369894 C45.3554672,97.5196645 44.8596196,98.0155121 44.151602,98.1472363 C43.4553455,98.2742561 42.8108378,97.9764653 42.7219239,97.4980241 C42.6353623,97.0031175 43.1406187,96.5077404 43.8354639,96.3793093 C44.5448929,96.256053 45.1795213,96.5463167 45.2698464,97.0369894 Z M39.026119,96.3515531 C39.7393115,96.3374398 40.3236025,96.7349646 40.3236025,97.2265782 C40.3405384,97.7214848 39.764245,98.1317117 39.0510525,98.1406501 C38.3336261,98.1561747 37.7535691,97.7558272 37.746042,97.2693885 C37.746042,96.7697774 38.309163,96.3633142 39.026119,96.3515531 Z M34.3070993,95.439363 C34.9845381,95.6440059 35.4295777,96.1901909 35.2884447,96.6681616 L35.2879742,96.6681616 C35.143548,97.1376643 34.4689319,97.3512457 33.7896114,97.1517776 C33.1112317,96.9461938 32.6671329,96.3957748 32.804032,95.9210972 C32.9451651,95.4483014 33.6226039,95.2257816 34.3070993,95.439363 Z M30.5350825,93.8182143 C31.0558636,94.3008895 31.2148735,94.9924415 30.8643931,95.3509196 L30.8639226,95.3509196 C30.5350825,95.7131611 29.8350625,95.6162497 29.322279,95.1213431 C28.7982048,94.6377271 28.6518968,93.9513499 28.9816778,93.5886378 C29.3142814,93.2254554 30.0185355,93.3275416 30.5350825,93.8182143 Z M27.449443,90.0062099 C27.816389,90.5486313 27.816389,91.1884346 27.4405046,91.4500013 L27.440975,91.4495308 C27.0730881,91.7049817 26.4718612,91.4655259 26.1006812,90.9320429 C25.7332648,90.3990303 25.7332648,89.759227 26.1086787,89.5028352 C26.4812701,89.2464434 27.0730881,89.4769608 27.449443,90.0062099 Z M25.2468261,86.8349496 C25.639176,87.2578784 25.7153879,87.8134723 25.4161858,88.0816251 C25.1306265,88.3464848 24.5712691,88.2232286 24.1916211,87.8040634 C23.7992711,87.385839 23.7258819,86.826952 24.0161456,86.5573878 C24.3111138,86.2925281 24.8535352,86.4162548 25.2468261,86.8349496 Z M21.9325509,84.5438893 C22.3686521,84.7391233 22.6170464,85.1493502 22.466034,85.4485523 C22.3343098,85.7463431 21.8648071,85.8357274 21.4381147,85.6315548 C21.0029544,85.4358503 20.7583237,85.029387 20.8994568,84.7301849 C21.0288288,84.4234557 21.4983315,84.337835 21.9325509,84.5438893 Z" id="Combined-Shape"></path>
                </g>
            </g>
        </g>
    </g>
</svg>