<?xml version="1.0" encoding="UTF-8"?>
<svg width="120px" height="120px" viewBox="0 0 120 120" version="1.1" xmlns="http://www.w3.org/2000/svg" xmlns:xlink="http://www.w3.org/1999/xlink">
    <!-- Generator: Sketch 61 (89581) - https://sketch.com -->
    <title>icon_medium</title>
    <desc>Created with Sketch.</desc>
    <g id="Page-1" stroke="none" stroke-width="1" fill="none" fill-rule="evenodd">
        <g id="Community" transform="translate(-864.000000, -326.000000)" fill="#FFFFFF" fill-rule="nonzero">
            <g id="Group-3" transform="translate(528.000000, 326.000000)">
                <g id="icon_medium" transform="translate(336.000000, 0.000000)">
                    <path d="M120,0 L120,120 L0,120 L0,0 L120,0 Z M43.2315376,26.8571429 L19.8719738,26.8571429 L19.8719738,28.210989 L27.3958691,37.2792967 C28.134332,37.9452929 28.5114594,38.9234795 28.4113152,39.9131429 L28.4113152,39.9131429 L28.4113152,75.5439121 C28.6303399,76.8293074 28.2252621,78.1423021 27.3202181,79.0805275 L27.3202181,79.0805275 L18.8571429,89.3525275 L18.8571429,90.7063736 L42.8551276,90.7063736 L42.8551276,89.3519121 L34.3920523,79.0805275 C33.4804768,78.1437974 33.050403,76.8394817 33.2259193,75.5439121 L33.2259193,75.5439121 L33.2259193,44.7291429 L54.29012,90.7063736 L56.7355551,90.7063736 L74.8284537,44.7291429 L74.8282975,81.550302 C74.825955,82.3789866 74.7884755,82.5814505 74.1888026,83.1814505 L74.1888026,83.1814505 L67.6815834,89.5026813 L67.6815834,90.8571429 L99.2778844,90.8571429 L99.2778844,89.5026813 L92.9963882,83.3322198 C92.4418868,82.9093203 92.1668041,82.2141325 92.2817012,81.5260659 L92.2817012,81.5260659 L92.2817012,36.1882198 C92.1668041,35.5001532 92.4418868,34.8049654 92.9963882,34.3820659 L92.9963882,34.3820659 L99.4285714,28.2116044 L99.4285714,26.8571429 L77.1607197,26.8571429 L61.2863032,66.4762198 L43.2315376,26.8571429 Z" id="Combined-Shape"></path>
                </g>
            </g>
        </g>
    </g>
</svg>