<?xml version="1.0" encoding="UTF-8"?>
<svg width="120px" height="120px" viewBox="0 0 120 120" version="1.1" xmlns="http://www.w3.org/2000/svg" xmlns:xlink="http://www.w3.org/1999/xlink">
    <!-- Generator: Sketch 61 (89581) - https://sketch.com -->
    <title>icon_twitter</title>
    <desc>Created with Sketch.</desc>
    <g id="Page-1" stroke="none" stroke-width="1" fill="none" fill-rule="evenodd">
        <g id="Community" transform="translate(-696.000000, -326.000000)" fill="#FFFFFF" fill-rule="nonzero">
            <g id="Group-3" transform="translate(528.000000, 326.000000)">
                <g id="icon_twitter" transform="translate(168.000000, 0.000000)">
                    <path d="M60,0 C93.137085,0 120,26.862915 120,60 C120,93.137085 93.137085,120 60,120 C26.862915,120 0,93.137085 0,60 C0,26.862915 26.862915,0 60,0 Z M74.7606232,28.6046512 C66.0686875,28.6046512 59.0195079,35.6986223 59.0195079,44.4544342 C59.0195079,45.6950353 59.1583008,46.9053578 59.4251166,48.0673984 C46.3405761,47.4053626 34.7402874,41.0953596 26.9756025,31.5072975 C25.61978,33.8489729 24.843718,36.5715848 24.843718,39.4764816 C24.843718,44.9746929 27.6234386,49.825803 31.8471751,52.6674832 C29.346793,52.5894778 26.9012859,51.9100089 24.7150855,50.6858767 L24.7150855,50.886165 C24.7150855,58.5662711 30.1410172,64.9701784 37.343621,66.4266162 C36.0205154,66.7915951 34.631976,66.982268 33.1954788,66.982268 C32.1798312,66.982268 31.194462,66.8854995 30.2318524,66.7032146 C32.2353078,72.9980783 38.0495753,77.5801597 44.9367959,77.7096617 C39.5486614,81.9619527 32.7593884,84.496756 25.385478,84.496756 C24.1154104,84.496756 22.8601773,84.4204459 21.627907,84.2708946 C28.5962087,88.7693009 36.8699366,91.3953488 45.7610189,91.3953488 C74.7177457,91.3953488 90.5543702,67.2437271 90.5543702,46.2991736 C90.5543702,45.6115648 90.5393326,44.9290705 90.5064124,44.2490313 C93.5918966,42.0021994 96.2553575,39.2202128 98.372093,36.0333227 C95.5492917,37.2943822 92.5173865,38.1468863 89.3296186,38.5300733 C92.5830236,36.5687207 95.0754041,33.4606713 96.2521979,29.7615771 C93.1617277,31.6095469 89.7794862,32.9105166 86.2523974,33.6079723 C83.3820448,30.5277464 79.2889728,28.6046512 74.7606232,28.6046512 Z" id="Combined-Shape"></path>
                </g>
            </g>
        </g>
    </g>
</svg>